<svg viewBox="0 0 68 68" fill="none" xmlns="http://www.w3.org/2000/svg">
<path d="M33.3111 0.506295C33.6971 0.139434 34.3029 0.139434 34.6889 0.506295L38.1815 3.82569C38.482 4.11128 38.9276 4.18185 39.3016 4.0031L43.6491 1.92545C44.1295 1.69582 44.7057 1.88302 44.9594 2.35121L47.2554 6.58743C47.4529 6.9519 47.8549 7.1567 48.2658 7.10228L53.0425 6.46975C53.5704 6.39984 54.0605 6.75591 54.1572 7.2796L55.0317 12.018C55.1069 12.4256 55.4259 12.7446 55.8336 12.8199L60.572 13.6944C61.0956 13.791 61.4517 14.2811 61.3818 14.809L60.7493 19.5857C60.6949 19.9967 60.8997 20.3986 61.2641 20.5962L65.5004 22.8921C65.9685 23.1459 66.1557 23.722 65.9261 24.2025L63.8485 28.5499C63.6697 28.924 63.7403 29.3695 64.0259 29.67L67.3453 33.1627C67.7121 33.5487 67.7121 34.1545 67.3453 34.5405L64.0259 38.0331C63.7403 38.3336 63.6697 38.7791 63.8485 39.1532L65.9261 43.5006C66.1557 43.9811 65.9685 44.5573 65.5004 44.811L61.2641 47.1069C60.8997 47.3045 60.6949 47.7064 60.7493 48.1174L61.3818 52.8941C61.4517 53.422 61.0956 53.9121 60.572 54.0088L55.8336 54.8833C55.4259 54.9585 55.1069 55.2775 55.0317 55.6852L54.1572 60.4235C54.0605 60.9472 53.5704 61.3033 53.0425 61.2334L48.2658 60.6008C47.8549 60.5464 47.4529 60.7512 47.2554 61.1157L44.9594 65.3519C44.7057 65.8201 44.1295 66.0073 43.6491 65.7777L39.3016 63.7C38.9276 63.5213 38.482 63.5918 38.1815 63.8774L34.6889 67.1968C34.3029 67.5637 33.6971 67.5637 33.3111 67.1968L29.8185 63.8774C29.518 63.5918 29.0724 63.5213 28.6984 63.7L24.3509 65.7777C23.8705 66.0073 23.2943 65.8201 23.0406 65.3519L20.7446 61.1157C20.5471 60.7512 20.1451 60.5464 19.7342 60.6008L14.9575 61.2334C14.4296 61.3033 13.9395 60.9472 13.8428 60.4235L12.9683 55.6852C12.8931 55.2775 12.5741 54.9585 12.1664 54.8833L7.42804 54.0088C6.90435 53.9121 6.54828 53.422 6.61819 52.8941L7.25072 48.1174C7.30514 47.7064 7.10034 47.3045 6.73587 47.1069L2.49965 44.811C2.03146 44.5573 1.84426 43.9811 2.07388 43.5006L4.15153 39.1532C4.33029 38.7791 4.25972 38.3336 3.97413 38.0331L0.654732 34.5405C0.287872 34.1545 0.287872 33.5487 0.654732 33.1627L3.97413 29.67C4.25972 29.3695 4.33029 28.924 4.15153 28.5499L2.07388 24.2025C1.84426 23.722 2.03146 23.1459 2.49965 22.8921L6.73587 20.5962C7.10034 20.3986 7.30514 19.9967 7.25072 19.5857L6.61819 14.809C6.54828 14.2811 6.90435 13.791 7.42804 13.6944L12.1664 12.8199C12.5741 12.7446 12.8931 12.4256 12.9683 12.018L13.8428 7.2796C13.9395 6.75591 14.4296 6.39984 14.9575 6.46975L19.7342 7.10228C20.1451 7.1567 20.5471 6.9519 20.7446 6.58743L23.0406 2.35121C23.2943 1.88302 23.8705 1.69582 24.3509 1.92545L28.6984 4.0031C29.0724 4.18185 29.518 4.11128 29.8185 3.82569L33.3111 0.506295Z" fill="currentColor"/>
</svg>
